<svg xmlns="http://www.w3.org/2000/svg" height="800" width="1200" viewBox="-120 -200.00825 1040 1200.0495"><ellipse ry="400.017" rx="400" cy="400.017" cx="400" fill="#fff"/><path d="M521.932 400.015c0-67.342-54.582-121.93-121.922-121.93-67.342 0-121.93 54.588-121.93 121.93 0 67.34 54.588 121.93 121.93 121.93 67.34 0 121.922-54.59 121.922-121.93" fill="#ed1c24"/><path d="M400.018 0c-38.11 0-74.923 5.443-109.841 15.398V231.62c31.58-20.639 69.288-32.681 109.833-32.681 111.044 0 201.072 90.025 201.072 201.076 0 111.052-90.028 201.078-201.072 201.078-111.051 0-201.08-90.026-201.08-201.078 0-3.572.102-7.12.282-10.648l-.281.222V54.274C79.994 123.598 0 252.425 0 400.015c0 220.921 179.097 400.018 400.018 400.018C620.936 800.033 800 620.936 800 400.015 800 179.097 620.936 0 400.018 0" fill="#ed1c24"/></svg>