<svg xmlns="http://www.w3.org/2000/svg" xmlns:xlink="http://www.w3.org/1999/xlink" height="800" width="1200" xml:space="preserve" y="0" x="0" id="Layer_1" version="1.1" viewBox="-11.565 -5.9 100.23 35.4"><style id="style35843" type="text/css">.st0{clip-path:url(#SVGID_2_)}.st1{fill:#109dd9}</style><g id="g35861"><defs id="defs35846"><path id="SVGID_1_" d="M0 0h77.1v23.6H0z"/></defs><clipPath id="SVGID_2_"><use height="100%" width="100%" y="0" x="0" id="use35848" xlink:href="#SVGID_1_" overflow="visible"/></clipPath><path id="path35851" clip-path="url(#SVGID_2_)" d="M28 8.9h-4.1c-1.9 0-2.8-.3-2.8-1V4.7c0-.6.9-1 2.8-1H28c1.9 0 2.8.3 2.8 1v3.2c0 .7-.9 1-2.8 1m0 1.5c3.4 0 5.1-.9 5.1-2.6v-3c0-1.8-1.7-2.6-5.1-2.6h-4.1c-3.4 0-5.1.9-5.1 2.6v3c0 1.8 1.7 2.6 5.1 2.6z" class="st0"/><path id="path35853" clip-path="url(#SVGID_2_)" d="M72 8.9h-4.1c-1.9 0-2.8-.3-2.8-1V4.7c0-.6.9-1 2.8-1H72c1.9 0 2.8.3 2.8 1v3.2c0 .7-.9 1-2.8 1m0 1.5c3.4 0 5.1-.9 5.1-2.6v-3c0-1.8-1.7-2.6-5.1-2.6h-4.1c-3.4 0-5.1.9-5.1 2.6v3c0 1.8 1.7 2.6 5.1 2.6z" class="st0"/><path id="path35855" clip-path="url(#SVGID_2_)" d="M16.5 7.8V5.7c0-.4-.3-.6-.9-.6h-5c-.5 0-.8.4-.8.8s.4.8.8.8H14v1.1c0 .3-.4.7-1.2.8-.6.2-1.1.2-1.6.2H5.7c-2.2 0-3.3-.4-3.3-1.1V2.6c0-.7 1.3-1 3.9-1h1.5c.6 0 .9-.3.9-.8.1-.5-.2-.8-.8-.8H5.7C4.4 0 3.2.1 2.1.5.8.9 0 1.6 0 2.6v5.2c0 1 .7 1.7 2 2.1 1 .3 2.2.5 3.7.5h5.5c1.3 0 2.5-.2 3.4-.5 1.2-.5 1.9-1.2 1.9-2.1" class="st0"/><path id="path35857" clip-path="url(#SVGID_2_)" d="M49.8 4.1c0 .8-1.1 1.1-3.2 1.1H38V1.5h8.6c2.1 0 3.2.2 3.2 1.1zm.3-3.7C49.1.2 48 0 46.6 0H36.3c-.4 0-.7.3-.7.7v9.1c0 .5.3.7.9.7h.7c.6 0 .9-.2.9-.7V6.7h8.6c1.5 0 2.6-.2 3.6-.5 1.3-.5 2-1.2 2-2.3V2.3c-.1-.8-.8-1.4-2.2-1.9" class="st0"/><path id="path35859" clip-path="url(#SVGID_2_)" d="M60.3 2.2c-2.1 0-3 0-4.3.5-1.2.5-1.7 1.3-1.7 2.1v5c0 .4.3.7.8.7h.7c.5 0 .8-.2.8-.7v-5c0-.7.9-1 2.7-1h1c.6 0 .9-.3.9-.8-.1-.5-.4-.8-.9-.8" class="st0"/></g><path id="rect35863" class="st1" d="M0 13h16.7v10.6H0z"/><path id="rect35865" class="st1" d="M20.1 13h16.7v10.6H20.1z"/><path id="rect35867" fill="#075daa" d="M40.2 13h16.7v10.6H40.2z"/><path id="rect35869" fill="#e8e8ea" d="M60.3 13H77v10.6H60.3z"/></svg>